<?xml version="1.0" encoding="utf-8"?>
<!-- Generator: Adobe Illustrator 24.0.1, SVG Export Plug-In . SVG Version: 6.00 Build 0)  -->
<svg version="1.1" id="github" xmlns="http://www.w3.org/2000/svg" xmlns:xlink="http://www.w3.org/1999/xlink" x="0px" y="0px"
	 viewBox="0 0 100 100" style="enable-background:new 0 0 100 100;" xml:space="preserve">
<style type="text/css">
	.st0{fill:#0399FF;}
	.st1{fill:#F7F7F7;}
</style>
<circle class="st0" cx="49.8" cy="50.4" r="48"/>
<g>
	<path class="st1" d="M49.8,75.4c-2.6,0-5.1,0-7.7,0c-1.8,0-3.5-0.1-5.3-0.3c-4-0.6-7.4-2.4-9.7-5.9c-1.1-1.7-1.8-3.6-2.1-5.6
		c-0.4-2.2-0.4-4.4-0.4-6.6c0-4.8,0-9.7,0-14.5c0-1.7,0.1-3.4,0.3-5.1c0.6-3.9,2.3-7.2,5.6-9.5c1.7-1.2,3.6-1.9,5.6-2.2
		c1.9-0.4,3.9-0.4,5.8-0.4c5.1,0,10.2,0,15.3,0c1.8,0,3.5,0.1,5.3,0.3c4,0.6,7.3,2.4,9.6,5.8c1.1,1.7,1.8,3.6,2.1,5.7
		c0.4,2.2,0.4,4.4,0.4,6.6c0,4.8,0,9.7,0,14.5c0,1.7-0.1,3.4-0.3,5.1c-0.6,3.8-2.2,7-5.4,9.3c-1.7,1.2-3.6,1.9-5.6,2.4
		c-1.5,0.3-3.1,0.4-4.6,0.4C55.9,75.4,52.9,75.5,49.8,75.4C49.8,75.5,49.8,75.5,49.8,75.4z M70.5,50.4c0-2.8,0-5.5-0.1-8.3
		c0-1.5-0.1-2.9-0.3-4.4c-0.2-1.4-0.7-2.7-1.5-3.8c-1.4-2-3.3-3.1-5.6-3.6c-1.6-0.3-3.2-0.4-4.8-0.4c-5.6,0-11.2,0-16.8,0
		c-1.4,0-2.9,0.1-4.3,0.3c-1.4,0.3-2.8,0.7-4,1.6c-1.9,1.4-3,3.2-3.5,5.5c-0.3,1.6-0.4,3.1-0.4,4.7c-0.1,6.3-0.2,12.7,0.1,19
		c0.1,1.3,0.3,2.6,0.7,3.8c0.7,2.2,2.1,3.8,4.1,4.9c1.2,0.6,2.6,1,4,1.1c1.6,0.1,3.1,0.2,4.7,0.2c5.1,0,10.3,0,15.4,0
		c1.4,0,2.8-0.1,4.2-0.3c1.4-0.3,2.6-0.7,3.8-1.4c2-1.4,3.1-3.3,3.6-5.6c0.3-1.6,0.4-3.3,0.4-4.9C70.4,55.9,70.5,53.1,70.5,50.4z"/>
	<path class="st1" d="M49.8,63.3c-7.1,0-12.9-5.8-12.9-12.9c0-7.1,5.8-12.9,12.9-12.9c7.1,0,12.9,5.8,12.9,12.9
		C62.7,57.5,56.9,63.3,49.8,63.3z M58.2,50.4c0-4.6-3.7-8.4-8.4-8.4c-4.6,0-8.4,3.7-8.4,8.4c0,4.7,3.7,8.4,8.4,8.4
		C54.5,58.8,58.2,55,58.2,50.4z"/>
	<path class="st1" d="M63.2,40c-1.7,0-3-1.3-3-3c0-1.7,1.3-3,3-3c1.7,0,3,1.3,3,3C66.2,38.6,64.9,40,63.2,40z"/>
</g>
</svg>
